#!OML:ASF H:\Dans Jumps\Project 1\Capture day 1\Session 1\subject.ASF
:FULLY-SPECIFIED
:DEGREES
507
root 0.415215 17.7254 -1.60067 7.11881 1.00872 -0.77905
lowerback -1.28153 -0.383914 -0.350695
upperback 4.14815 -0.573125 1.6978
thorax 5.02341 -0.336717 1.92113
lowerneck -12.1695 0.0792296 -2.1537
upperneck 35.2847 0.467884 0.694685
head 14.0515 0.0130586 0.734848
rclavicle -1.68967e-015 4.77083e-015
rhumerus -19.7092 -21.7659 -81.0402
rradius 21.11
rwrist 37.5933
rhand -19.9292 -26.2674
rfingers 7.12502
rthumb 6.4082 -56.1505
lclavicle -1.68967e-015 4.77083e-015
lhumerus -18.2354 -2.25763 90.3971
lradius 17.4938
lwrist 2.49498
lhand -25.9781 -5.15601
lfingers 7.12502
lthumb 0.566879 24.823
rfemur -14.5554 -2.76832 19.0895
rtibia 23.9795
rfoot -14.3887 -2.26182
rtoes 11.4903
lfemur -13.5762 6.52914 -18.0068
ltibia 19.5098
lfoot -10.2856 5.029
ltoes 2.98587
508
root 0.414566 17.7254 -1.59949 7.11258 1.0122 -0.777882
lowerback -1.2829 -0.384545 -0.352353
upperback 4.15065 -0.573916 1.69716
thorax 5.02685 -0.337194 1.92136
lowerneck -12.1777 0.0823894 -2.15225
upperneck 35.2787 0.47413 0.689961
head 14.0505 0.0153741 0.733622
rclavicle -5.96354e-016 -1.59028e-015
rhumerus -19.7187 -21.7687 -81.0407
rradius 21.1055
rwrist 37.6017
rhand -19.9293 -26.2601
rfingers 7.12502
rthumb 6.40805 -56.1432
lclavicle -5.96354e-016 -1.59028e-015
lhumerus -18.2559 -2.22048 90.3869
lradius 17.476
lwrist 2.46403
lhand -26.001 -5.20344
lfingers 7.12502
lthumb 0.544808 24.7756
rfemur -14.5396 -2.76367 19.0902
rtibia 23.9727
rfoot -14.3908 -2.27053
rtoes 11.4759
lfemur -13.5627 6.53264 -18.0044
ltibia 19.5049
lfoot -10.2896 5.0212
ltoes 2.99582
509
root 0.413978 17.7254 -1.59843 7.10801 1.01676 -0.778484
lowerback -1.28417 -0.385591 -0.351653
upperback 4.15274 -0.575365 1.69692
thorax 5.02981 -0.337908 1.92064
lowerneck -12.1862 0.0850786 -2.15228
upperneck 35.2723 0.479398 0.687155
head 14.0494 0.0173277 0.733279
rclavicle -1.39149e-015 1.11319e-014
rhumerus -19.7272 -21.7755 -81.0401
rradius 21.0987
rwrist 37.6179
rhand -19.929 -26.2464
rfingers 7.12502
rthumb 6.4084 -56.1294
lclavicle -1.39149e-015 1.11319e-014
lhumerus -18.2754 -2.18847 90.3772
lradius 17.4583
lwrist 2.43902
lhand -26.014 -5.23293
lfingers 7.12502
lthumb 0.532261 24.7462
rfemur -14.5262 -2.75974 19.0925
rtibia 23.9656
rfoot -14.39 -2.27888
rtoes 11.4668
lfemur -13.553 6.53462 -18.0004
ltibia 19.5029
lfoot -10.2933 5.01337
ltoes 3.00809
510
root 0.413467 17.7254 -1.59747 7.10498 1.02333 -0.780249
lowerback -1.28593 -0.38724 -0.349166
upperback 4.15523 -0.577694 1.69663
thorax 5.03348 -0.338991 1.91881
lowerneck -12.1945 0.0872899 -2.14906
upperneck 35.2638 0.483766 0.682263
head 14.0474 0.0190603 0.731364
rclavicle -3.57812e-015 1.59028e-014
rhumerus -19.7331 -21.7861 -81.0406
rradius 21.0906
rwrist 37.6392
rhand -19.9269 -26.235
rfingers 7.12502
rthumb 6.41036 -56.118
lclavicle -3.57812e-015 1.59028e-014
lhumerus -18.2934 -2.15747 90.3673
lradius 17.4421
lwrist 2.41452
lhand -26.0201 -5.2585
lfingers 7.12502
lthumb 0.526319 24.7206
rfemur -14.5147 -2.75762 19.0958
rtibia 23.9589
rfoot -14.3884 -2.28592
rtoes 11.4657
lfemur -13.5463 6.53482 -17.9955
ltibia 19.5024
lfoot -10.2966 5.00539
ltoes 3.01772
511
root 0.413037 17.7254 -1.59656 7.10328 1.03178 -0.783239
lowerback -1.29014 -0.38949 -0.344882
upperback 4.15772 -0.580908 1.69632
thorax 5.03856 -0.340447 1.91588
lowerneck -12.1989 0.0876836 -2.14983
upperneck 35.2535 0.484254 0.683419
head 14.0437 0.0194101 0.731979
rclavicle 4.96962e-016 9.93923e-015
rhumerus -19.7367 -21.8038 -81.0408
rradius 21.0787
rwrist 37.6671
rhand -19.9223 -26.229
rfingers 7.12502
rthumb 6.41486 -56.1118
lclavicle 4.96962e-016 9.93923e-015
lhumerus -18.3107 -2.12855 90.3576
lradius 17.4253
lwrist 2.38686
lhand -26.0173 -5.27499
lfingers 7.12502
lthumb 0.529066 24.7041
rfemur -14.5044 -2.75784 19.1005
rtibia 23.9518
rfoot -14.3861 -2.29226
rtoes 11.4716
lfemur -13.5421 6.53178 -17.9895
ltibia 19.5033
lfoot -10.3005 4.99947
ltoes 3.02455
512
root 0.412667 17.7255 -1.5957 7.1027 1.04121 -0.783828
lowerback -1.2935 -0.392582 -0.343762
upperback 4.1583 -0.585101 1.69613
thorax 5.04122 -0.342496 1.9148
lowerneck -12.1998 0.0877073 -2.15226
upperneck 35.2439 0.484358 0.685104
head 14.0395 0.0194385 0.733033
rclavicle -2.08724e-015 9.93923e-015
rhumerus -19.7455 -21.8058 -81.0413
rradius 21.0726
rwrist 37.6804
rhand -19.9192 -26.2263
rfingers 7.12502
rthumb 6.41777 -56.1091
lclavicle -2.08724e-015 9.93923e-015
lhumerus -18.3312 -2.10213 90.3491
lradius 17.4119
lwrist 2.35516
lhand -26.009 -5.27551
lfingers 7.12502
lthumb 0.537039 24.7036
rfemur -14.4952 -2.76064 19.1025
rtibia 23.9449
rfoot -14.3848 -2.29693
rtoes 11.4842
lfemur -13.539 6.52781 -17.9866
ltibia 19.5034
lfoot -10.3042 4.9936
ltoes 3.03267
513
root 0.412316 17.7255 -1.59493 7.10281 1.05331 -0.785202
lowerback -1.29479 -0.396825 -0.342761
upperback 4.15683 -0.590833 1.69698
thorax 5.04063 -0.34531 1.91479
lowerneck -12.1957 0.0875391 -2.15968
upperneck 35.2345 0.483622 0.691817
head 14.0342 0.0191139 0.736854
rclavicle 6.95746e-016 -6.75868e-015
rhumerus -19.7566 -21.808 -81.0398
rradius 21.0656
rwrist 37.6945
rhand -19.917 -26.225
rfingers 7.12502
rthumb 6.41991 -56.1077
lclavicle 6.95746e-016 -6.75868e-015
lhumerus -18.3557 -2.0795 90.3423
lradius 17.4024
lwrist 2.3227
lhand -25.998 -5.27094
lfingers 7.12502
lthumb 0.54768 24.7081
rfemur -14.4862 -2.76358 19.1056
rtibia 23.9375
rfoot -14.386 -2.3042
rtoes 11.4953
lfemur -13.5362 6.52241 -17.9828
ltibia 19.5011
lfoot -10.3074 4.98758
ltoes 3.03491
514
root 0.411963 17.7255 -1.5942 7.1044 1.06694 -0.784617
lowerback -1.2956 -0.401572 -0.344719
upperback 4.15417 -0.597112 1.69802
thorax 5.03858 -0.348503 1.9166
lowerneck -12.1959 0.0873622 -2.16732
upperneck 35.2297 0.483118 0.698437
head 14.032 0.0188052 0.740766
rclavicle 7.45443e-015 -1.98785e-014
rhumerus -19.7694 -21.8075 -81.0366
rradius 21.0587
rwrist 37.7048
rhand -19.9177 -26.2231
rfingers 7.12502
rthumb 6.41926 -56.1059
lclavicle 7.45443e-015 -1.98785e-014
lhumerus -18.3797 -2.06741 90.3374
lradius 17.3947
lwrist 2.29516
lhand -25.9816 -5.25139
lfingers 7.12502
lthumb 0.563483 24.7276
rfemur -14.4785 -2.76801 19.1068
rtibia 23.9297
rfoot -14.388 -2.31193
rtoes 11.5066
lfemur -13.5337 6.517 -17.9815
ltibia 19.495
lfoot -10.3088 4.97989
ltoes 3.03882
515
root 0.411632 17.7256 -1.59352 7.10563 1.08005 -0.782659
lowerback -1.29445 -0.406112 -0.348875
upperback 4.15144 -0.60303 1.69939
thorax 5.03535 -0.351606 1.92002
lowerneck -12.1975 0.0869848 -2.17563
upperneck 35.2267 0.482532 0.70512
head 14.031 0.0183667 0.744832
rclavicle -1.78906e-015 -3.18055e-015
rhumerus -19.7837 -21.8047 -81.0318
rradius 21.054
rwrist 37.71
rhand -19.9202 -26.2195
rfingers 7.12502
rthumb 6.41683 -56.1023
lclavicle -1.78906e-015 -3.18055e-015
lhumerus -18.403 -2.06141 90.3344
lradius 17.3902
lwrist 2.26815
lhand -25.9589 -5.22042
lfingers 7.12502
lthumb 0.585468 24.7585
rfemur -14.4701 -2.77079 19.1065
rtibia 23.9203
rfoot -14.3899 -2.32158
rtoes 11.512
lfemur -13.5293 6.51056 -17.9816
ltibia 19.4853
lfoot -10.3086 4.97366
ltoes 3.03931
516
root 0.411323 17.7258 -1.59285 7.10787 1.09232 -0.780098
lowerback -1.2924 -0.409793 -0.353121
upperback 4.14736 -0.607742 1.70008
thorax 5.03013 -0.35408 1.92286
lowerneck -12.2015 0.0867175 -2.17887
upperneck 35.2283 0.482373 0.707395
head 14.0326 0.0181609 0.746332
rclavicle -2.28602e-015 -5.56597e-015
rhumerus -19.8013 -21.8059 -81.0254
rradius 21.0503
rwrist 37.7173
rhand -19.9198 -26.2196
rfingers 7.12502
rthumb 6.41723 -56.1024
lclavicle -2.28602e-015 -5.56597e-015
lhumerus -18.4246 -2.06918 90.3334
lradius 17.3833
lwrist 2.25579
lhand -25.9415 -5.19777
lfingers 7.12502
lthumb 0.602292 24.7811
rfemur -14.4617 -2.77651 19.1055
rtibia 23.9087
rfoot -14.3906 -2.32814
rtoes 11.5102
lfemur -13.5244 6.50601 -17.9829
ltibia 19.4725
lfoot -10.3069 4.96568
ltoes 3.03704
517
root 0.411075 17.7261 -1.59217 7.11015 1.10117 -0.779417
lowerback -1.28923 -0.412466 -0.355156
upperback 4.1428 -0.611208 1.70134
thorax 5.02372 -0.35585 1.92511
lowerneck -12.2031 0.0862601 -2.18155
upperneck 35.229 0.482731 0.70679
head 14.0333 0.0178794 0.74663
rclavicle 5.86415e-015 3.57812e-015
rhumerus -19.8207 -21.8061 -81.0174
rradius 21.048
rwrist 37.7254
rhand -19.919 -26.219
rfingers 7.12502
rthumb 6.41801 -56.1017
lclavicle 5.86415e-015 3.57812e-015
lhumerus -18.4427 -2.0859 90.3341
lradius 17.3729
lwrist 2.25341
lhand -25.9239 -5.17153
lfingers 7.12502
lthumb 0.619205 24.8073
rfemur -14.4523 -2.7801 19.106
rtibia 23.8936
rfoot -14.3892 -2.33302
rtoes 11.5066
lfemur -13.5186 6.50481 -17.9827
ltibia 19.4583
lfoot -10.3043 4.95878
ltoes 3.02661
518
root 0.410852 17.7265 -1.5915 7.11366 1.10754 -0.781816
lowerback -1.28737 -0.414491 -0.354041
upperback 4.13863 -0.613973 1.70329
thorax 5.01841 -0.35717 1.92635
lowerneck -12.2042 0.0866144 -2.18064
upperneck 35.2282 0.484877 0.701659
head 14.0332 0.0182511 0.744722
rclavicle 5.86415e-015 6.36111e-015
rhumerus -19.8398 -21.8058 -81.0097
rradius 21.0467
rwrist 37.7349
rhand -19.9234 -26.2164
rfingers 7.12502
rthumb 6.41375 -56.0993
lclavicle 5.86415e-015 6.36111e-015
lhumerus -18.4575 -2.10241 90.3342
lradius 17.3611
lwrist 2.25102
lhand -25.9096 -5.14992
lfingers 7.12502
lthumb 0.633021 24.8289
rfemur -14.4438 -2.78106 19.1097
rtibia 23.8765
rfoot -14.3864 -2.33689
rtoes 11.5055
lfemur -13.5126 6.50461 -17.9793
ltibia 19.4411
lfoot -10.2999 4.95277
ltoes 3.01916
